<svg width="256" height="239" viewBox="0 0 256 239" fill="none" xmlns="http://www.w3.org/2000/svg">
<path d="M128.287 0L0 119.687L128.261 238.969L256 120.134L128.287 0Z" fill="#E54242"/>
<path d="M51.7881 119.4L115.967 43.1562C122.032 36.3749 132.219 36.3749 138.284 43.1562L202.463 119.4C208.528 126.181 208.528 136.856 202.463 143.638L138.284 219.881C132.219 226.662 122.032 226.662 115.967 219.881L51.7881 143.638C45.7231 136.856 45.7231 126.181 51.7881 119.4Z" fill="white"/>
<path d="M142.916 138.806L167.334 106.825C168.928 104.849 168.928 102.043 167.334 100.067L142.916 68.0862C141.321 66.11 138.616 66.11 137.022 68.0862L112.604 100.067C111.009 102.043 111.009 104.849 112.604 106.825L137.022 138.806C138.616 140.782 141.321 140.782 142.916 138.806Z" fill="#E84142"/>
<path d="M184.866 119.38L108.697 43.211C104.964 39.479 98.9637 39.479 95.2315 43.211L19.0623 119.38C15.3301 123.112 15.3301 129.112 19.0623 132.844L95.2315 209.014C98.9637 212.746 104.964 212.746 108.697 209.014L184.866 132.844C188.598 129.112 188.598 123.112 184.866 119.38ZM111.034 102.496L91.5502 128.112L71.8411 102.388C69.7739 99.698 69.7739 96.0689 71.8411 93.3796L91.5502 67.6554C93.6173 64.9661 97.304 64.9661 99.3712 67.6554L119.08 93.3796C121.147 96.0689 121.147 99.698 119.08 102.496H111.034ZM88.7689 141.152C86.7018 138.463 86.7018 134.834 88.7689 132.145L102.243 114.466L115.717 132.145C117.784 134.834 117.784 138.463 115.717 141.152L102.243 158.831C100.176 161.52 96.4895 161.52 94.4223 158.831L88.7689 141.152Z" fill="#E84142"/>
</svg>